#!OML:ASF Y:\EmotionMaleHayes\Project 1\Capture day 1\Session 1\Male1.ASF
:FULLY-SPECIFIED
:DEGREES
418
root -13.5992 16.4057 16.1095 -56.1145 67.9318 -60.6533
lowerback 14.1451 3.37958 10.445
upperback 4.25084 6.30367 3.23006
thorax -2.6339 3.23807 -3.4134
lowerneck -21.0804 3.46573 7.24837
upperneck 24.0141 4.03757 -4.98856
head 11.5925 1.91433 -2.39712
rclavicle -8.11041e-014 -6.44062e-014
rhumerus -12.6898 14.3927 -79.93
rradius 55.0373
rwrist -9.45106
rhand -20.9677 -37.0576
rfingers 7.12502
rthumb 5.40551 -66.9686
lclavicle -8.11041e-014 -6.44062e-014
lhumerus -45.1099 -17.6573 85.1567
lradius 34.6483
lwrist -4.34573
lhand -20.0342 -19.0802
lfingers 7.12502
lthumb 6.30681 10.8059
rfemur 15.1227 -8.98872 31.9
rtibia 6.43334
rfoot -23.9136 7.07813
rtoes -11.96
lfemur -40.5867 11.5692 -6.28114
ltibia 45.8176
lfoot -11.9069 3.77466
ltoes -0.666307
419
root -13.3544 16.3064 16.1583 -55.5777 67.6854 -59.7763
lowerback 14.2957 3.58383 10.4481
upperback 4.08204 6.58797 3.04354
thorax -2.83473 3.35846 -3.66953
lowerneck -20.8899 3.39657 7.34557
upperneck 23.8877 3.87234 -4.83539
head 11.4946 1.87087 -2.38279
rclavicle -1.66979e-014 2.22639e-014
rhumerus -10.4743 14.8207 -79.2827
rradius 55.7188
rwrist -9.65801
rhand -21.2106 -36.7056
rfingers 7.12502
rthumb 5.17101 -66.6225
lclavicle -1.66979e-014 2.22639e-014
lhumerus -47.4438 -18.137 84.4432
lradius 34.9223
lwrist -3.08479
lhand -20.9022 -19.0031
lfingers 7.12502
lthumb 5.46882 10.9064
rfemur 16.6163 -8.57848 31.7662
rtibia 6.23907
rfoot -24.5008 6.62359
rtoes -14.0715
lfemur -40.6475 12.189 -6.11188
ltibia 41.9488
lfoot -10.0818 3.89928
ltoes -1.83732
420
root -13.0991 16.2034 16.205 -54.5874 67.3644 -58.4699
lowerback 14.288 3.80725 10.4291
upperback 3.97985 6.86566 2.82246
thorax -2.87558 3.4866 -3.93077
lowerneck -20.8919 3.3551 7.37615
upperneck 23.8646 3.74388 -4.63252
head 11.4737 1.84162 -2.33287
rclavicle 1.86858e-014 5.88403e-014
rhumerus -8.0925 14.8187 -78.9354
rradius 55.8425
rwrist -9.01051
rhand -22.2273 -34.9649
rfingers 7.12502
rthumb 4.18924 -64.9035
lclavicle 1.86858e-014 5.88403e-014
lhumerus -49.6614 -18.6064 83.7831
lradius 35.01
lwrist -1.85235
lhand -21.804 -18.8151
lfingers 7.12502
lthumb 4.598 11.115
rfemur 18.0963 -8.25974 31.4144
rtibia 6.10431
rfoot -24.785 6.8363
rtoes -14.2063
lfemur -40.4997 12.9169 -5.93718
ltibia 38.0498
lfoot -8.60162 3.9281
ltoes 0.797685
421
root -12.8314 16.0947 16.2481 -53.4068 67.04 -56.9967
lowerback 14.093 4.05539 10.3466
upperback 3.91353 7.13961 2.60102
thorax -2.78295 3.62181 -4.13584
lowerneck -20.9964 3.32837 7.43031
upperneck 23.972 3.62955 -4.43873
head 11.5244 1.82042 -2.28871
rclavicle 2.62396e-014 2.62396e-014
rhumerus -6.28826 15.6313 -78.3168
rradius 56.8656
rwrist -9.50443
rhand -23.6834 -34.6993
rfingers 7.12502
rthumb 2.78317 -64.6609
lclavicle 2.62396e-014 2.62396e-014
lhumerus -51.7857 -19.0621 83.1928
lradius 34.9924
lwrist -0.985314
lhand -22.7945 -18.4457
lfingers 7.12502
lthumb 3.6416 11.5029
rfemur 19.514 -7.80603 31.0046
rtibia 6.17439
rfoot -25.0616 7.01645
rtoes -14.5767
lfemur -40.3348 13.8442 -5.89656
ltibia 34.3471
lfoot -6.42004 4.47647
ltoes 5.39269
422
root -12.5594 15.9878 16.2916 -52.3353 66.7513 -55.6553
lowerback 13.8137 4.27412 10.1116
upperback 3.85155 7.34711 2.43493
thorax -2.67559 3.72547 -4.18231
lowerneck -20.9627 3.33358 7.43688
upperneck 24.0163 3.56095 -4.15616
head 11.5252 1.82832 -2.19605
rclavicle -1.19271e-015 1.03368e-014
rhumerus -4.6705 16.4058 -77.7364
rradius 58.4422
rwrist -10.6247
rhand -24.8448 -37.6259
rfingers 7.12502
rthumb 1.66143 -67.5991
lclavicle -1.19271e-015 1.03368e-014
lhumerus -53.8053 -19.2963 82.5939
lradius 34.8537
lwrist -0.551372
lhand -23.5383 -17.5045
lfingers 7.12502
lthumb 2.92327 12.4552
rfemur 20.7216 -6.70876 30.9962
rtibia 6.51979
rfoot -25.6969 6.63866
rtoes -16.3622
lfemur -40.2545 15.0147 -6.05217
ltibia 31.4457
lfoot -4.23592 5.21282
ltoes 9.94794
423
root -12.2869 15.8869 16.3342 -51.4156 66.3769 -54.5734
lowerback 13.4504 4.44332 9.94457
upperback 3.79915 7.49246 2.306
thorax -2.51751 3.80188 -4.20792
lowerneck -20.8787 3.41674 7.40778
upperneck 23.9175 3.60099 -3.83774
head 11.4679 1.88396 -2.06568
rclavicle 3.85642e-014 1.59028e-014
rhumerus -3.57397 17.9799 -76.8527
rradius 60.1859
rwrist -11.8727
rhand -25.985 -36.9903
rfingers 7.12502
rthumb 0.560213 -66.9693
lclavicle 3.85642e-014 1.59028e-014
lhumerus -55.4006 -19.3879 81.9512
lradius 34.2763
lwrist -0.551904
lhand -23.5867 -17.3712
lfingers 7.12502
lthumb 2.87653 12.5892
rfemur 21.5763 -5.37455 31.3341
rtibia 7.2502
rfoot -26.3904 6.08941
rtoes -18.5389
lfemur -40.3498 16.3938 -6.25257
ltibia 29.4085
lfoot -4.05053 6.7186
ltoes 6.61251
424
root -12.0079 15.7931 16.3731 -50.8616 65.882 -53.9892
lowerback 12.8973 4.57446 10.1011
upperback 3.78362 7.60737 2.17881
thorax -2.17787 3.87568 -4.37618
lowerneck -20.8886 3.51963 7.39361
upperneck 23.8077 3.66427 -3.55445
head 11.4271 1.94488 -1.94687
rclavicle -7.95139e-016 1.27222e-014
rhumerus -2.01116 19.3995 -75.917
rradius 61.6664
rwrist -12.9738
rhand -26.8651 -38.0895
rfingers 7.12502
rthumb -0.289802 -68.0691
lclavicle -7.95139e-016 1.27222e-014
lhumerus -56.4523 -19.3616 81.1234
lradius 33.3101
lwrist -1.05564
lhand -23.3191 -17.2986
lfingers 7.12502
lthumb 3.13492 12.6581
rfemur 22.1809 -4.46453 31.6986
rtibia 8.30323
rfoot -26.9183 5.54773
rtoes -21.5997
lfemur -40.7696 18.0072 -6.4772
ltibia 28.2409
lfoot -4.69303 8.34225
ltoes 3.91558
425
root -11.7214 15.7124 16.4101 -50.661 65.2085 -53.7993
lowerback 12.3215 4.71188 10.5352
upperback 3.74435 7.76514 2.09115
thorax -1.81059 3.9733 -4.65178
lowerneck -21.019 3.59039 7.43628
upperneck 23.8788 3.66791 -3.29366
head 11.4762 1.98359 -1.85563
rclavicle -2.26615e-014 -5.88403e-014
rhumerus -0.946252 20.855 -74.9427
rradius 63.7795
rwrist -14.3902
rhand -27.4012 -38.7796
rfingers 7.12502
rthumb -0.80759 -68.7578
lclavicle -2.26615e-014 -5.88403e-014
lhumerus -57.2851 -19.0303 79.9811
lradius 32.4275
lwrist -2.15095
lhand -22.373 -17.0769
lfingers 7.12502
lthumb 4.04858 12.8643
rfemur 22.6063 -3.45524 32.4087
rtibia 9.68273
rfoot -27.1595 5.15366
rtoes -22.853
lfemur -41.3507 19.9699 -6.63415
ltibia 28.0614
lfoot -5.27036 9.66554
ltoes 3.72604
426
root -11.4298 15.6462 16.4404 -50.9288 64.4015 -54.031
lowerback 11.9711 4.79593 11.202
upperback 3.63657 7.91521 2.08368
thorax -1.61615 4.05691 -4.99485
lowerneck -21.1678 3.69397 7.59081
upperneck 24.0843 3.7287 -3.18649
head 11.5894 2.04166 -1.83072
rclavicle 5.1684e-015 -5.08889e-014
rhumerus -0.188255 22.4594 -73.9336
rradius 66.0723
rwrist -15.7313
rhand -27.0926 -38.3968
rfingers 7.12502
rthumb -0.50951 -68.376
lclavicle 5.1684e-015 -5.08889e-014
lhumerus -58.0773 -18.5092 78.7628
lradius 31.5672
lwrist -3.72629
lhand -21.2263 -16.7319
lfingers 7.12502
lthumb 5.15587 13.1853
rfemur 22.9042 -2.29122 33.4962
rtibia 11.3415
rfoot -27.1266 4.7983
rtoes -23.1404
lfemur -41.7746 21.8881 -6.49942
ltibia 28.4486
lfoot -5.57635 11.228
ltoes 9.32324
427
root -11.1324 15.5924 16.4612 -51.461 63.7743 -54.5057
lowerback 11.7277 4.84649 11.8744
upperback 3.46046 8.03713 2.07459
thorax -1.5533 4.11579 -5.35554
lowerneck -21.0881 3.76784 7.7384
upperneck 24.1732 3.78382 -3.13539
head 11.6145 2.09084 -1.82783
rclavicle 2.18663e-014 1.59028e-014
rhumerus 0.278428 23.8161 -73.0425
rradius 68.2837
rwrist -16.2789
rhand -26.1981 -37.4976
rfingers 7.12502
rthumb 0.354399 -67.4771
lclavicle 2.18663e-014 1.59028e-014
lhumerus -58.8534 -18.1747 77.7545
lradius 30.6824
lwrist -5.20585
lhand -20.1294 -16.4124
lfingers 7.12502
lthumb 6.2149 13.4765
rfemur 23.0122 -1.46814 34.332
rtibia 13.378
rfoot -26.9248 4.44959
rtoes -25.2216
lfemur -41.9922 23.4701 -6.44632
ltibia 29.06
lfoot -4.70252 12.1009
ltoes 13.5923
428
root -10.8322 15.5467 16.4789 -51.8928 63.3245 -54.8201
lowerback 11.5155 4.95294 12.3635
upperback 3.2895 8.21181 2.03247
thorax -1.51136 4.19852 -5.65844
lowerneck -20.9125 3.77348 7.88462
upperneck 24.1237 3.74686 -3.08747
head 11.5624 2.09665 -1.84148
rclavicle 4.77083e-015 -2.22639e-014
rhumerus 0.386611 25.0418 -72.248
rradius 70.5181
rwrist -16.5458
rhand -26.0918 -36.5416
rfingers 7.12502
rthumb 0.457106 -66.5209
lclavicle 4.77083e-015 -2.22639e-014
lhumerus -59.4426 -18.0149 76.9144
lradius 29.7256
lwrist -6.52544
lhand -19.2736 -16.2456
lfingers 7.12502
lthumb 7.04103 13.6173
rfemur 22.9083 -0.630379 34.99
rtibia 15.945
rfoot -26.3108 4.28192
rtoes -26.9924
lfemur -42.0414 25.0446 -6.69012
ltibia 29.7227
lfoot -3.2038 12.5986
ltoes 20.6298
429
root -10.5326 15.505 16.4939 -52.0446 63.1587 -54.7042
lowerback 11.3804 5.06353 12.4808
upperback 3.21273 8.35072 1.94175
thorax -1.46205 4.26712 -5.81319
lowerneck -20.7695 3.7783 8.06163
upperneck 24.0469 3.72687 -3.15814
head 11.5101 2.09605 -1.90124
rclavicle -2.8625e-014 1.43125e-014
rhumerus 0.431822 26.3737 -71.459
rradius 72.7718
rwrist -16.5898
rhand -25.8157 -37.166
rfingers 7.12502
rthumb 0.7237 -67.1445
lclavicle -2.8625e-014 1.43125e-014
lhumerus -59.8151 -17.7524 76.1798
lradius 28.8073
lwrist -7.84551
lhand -18.5681 -16.142
lfingers 7.12502
lthumb 7.72205 13.697
rfemur 22.6696 0.374057 35.3629
rtibia 18.9405
rfoot -24.9401 4.47157
rtoes -26.3002
lfemur -41.9819 26.4435 -7.34311
ltibia 31.5163
lfoot -3.26566 12.6892
ltoes 25.2173
430
root -10.233 15.4679 16.5015 -52.0518 63.5053 -54.3028
lowerback 11.4218 5.09929 12.1293
upperback 3.12136 8.35808 1.75867
thorax -1.60359 4.25524 -5.8304
lowerneck -20.5637 3.7987 8.18809
upperneck 24.0972 3.73943 -3.14977
head 11.4935 2.12008 -1.9189
rclavicle 9.54166e-015 3.18055e-014
rhumerus -0.0694671 27.309 -71.1175
rradius 75.0506
rwrist -15.5995
rhand -24.1062 -36.9479
rfingers 7.12502
rthumb 2.37477 -66.9144
lclavicle 9.54166e-015 3.18055e-014
lhumerus -60.2593 -17.4666 75.6669
lradius 28.0041
lwrist -8.98965
lhand -18.2939 -16.3857
lfingers 7.12502
lthumb 7.98671 13.4434
rfemur 22.232 1.05954 34.964
rtibia 22.404
rfoot -22.8922 5.19577
rtoes -23.4433
lfemur -41.8102 27.0184 -8.39593
ltibia 33.5577
lfoot -3.03962 12.7736
ltoes 25.7933
431
root -9.94066 15.4366 16.5051 -51.8015 64.2939 -53.5519
lowerback 11.6539 5.03356 11.2399
upperback 3.03709 8.18816 1.50126
thorax -1.93998 4.14273 -5.64865
lowerneck -20.6239 3.91923 8.32599
upperneck 24.3579 3.84502 -3.04821
head 11.614 2.20003 -1.88665
rclavicle -1.82882e-014 9.54166e-015
rhumerus -0.867646 29.2299 -70.8773
rradius 77.4177
rwrist -17.1011
rhand -25.897 -33.1067
rfingers 7.12502
rthumb 0.645196 -63.0855
lclavicle -1.82882e-014 9.54166e-015
lhumerus -60.583 -16.9933 75.2513
lradius 27.0658
lwrist -10.0166
lhand -18.2851 -16.7841
lfingers 7.12502
lthumb 7.99522 13.0447
rfemur 21.5212 1.35407 33.7548
rtibia 26.2441
rfoot -20.0039 6.10085
rtoes -20.2697
lfemur -41.45 26.4952 -9.48593
ltibia 35.4801
lfoot -4.49489 11.3522
ltoes 29.3394
432
root -9.66068 15.4142 16.5054 -51.0556 65.5437 -52.2251
lowerback 11.9982 4.92926 9.80611
upperback 3.04102 7.8974 1.12515
thorax -2.31752 3.97467 -5.28913
lowerneck -20.8934 4.10657 8.57805
upperneck 24.5997 4.02861 -3.12053
head 11.7806 2.29865 -1.92275
rclavicle -1.39149e-014 -1.74931e-014
rhumerus -1.67035 30.5714 -71.0863
rradius 79.4976
rwrist -17.1765
rhand -25.0195 -33.1317
rfingers 7.12502
rthumb 1.49272 -63.1063
lclavicle -1.39149e-014 -1.74931e-014
lhumerus -60.6774 -16.3906 74.88
lradius 26.3064
lwrist -10.9162
lhand -18.1648 -16.8957
lfingers 7.12502
lthumb 8.11126 12.9286
rfemur 20.4923 1.45432 31.809
rtibia 30.3088
rfoot -15.8927 6.66017
rtoes -17.4693
lfemur -41.1013 25.1053 -10.7619
ltibia 37.432
lfoot -6.08617 12.7047
ltoes 30.5185
